<?xml version="1.0" encoding="UTF-8" standalone="no"?>
<!DOCTYPE svg PUBLIC "-//W3C//DTD SVG 1.1//EN"
 "http://www.w3.org/Graphics/SVG/1.1/DTD/svg11.dtd">
<!-- Generated by graphviz version 2.40.1 (20161225.0304)
 -->
<!-- Title: G Pages: 1 -->
<svg width="503pt" height="1377pt"
 viewBox="0.00 0.00 503.37 1376.63" xmlns="http://www.w3.org/2000/svg" xmlns:xlink="http://www.w3.org/1999/xlink">
<g id="graph0" class="graph" transform="scale(1 1) rotate(0) translate(4 1372.6274)">
<title>G</title>
<polygon fill="#ffffff" stroke="transparent" points="-4,4 -4,-1372.6274 499.3722,-1372.6274 499.3722,4 -4,4"/>
<!-- A0 -->
<g id="node1" class="node">
<title>A0</title>
<g transform="translate(50.951,-312)" style="fill:none;stroke:black;stroke-width:1px"><circle cx="0" cy="-20" r="7.5" />
                <line x1="0" y1="-12.5" x2="0" y2="5" />
                <line x1="-15" y1="-5" x2="15" y2="-5" />
                <line x1="0" y1="5" x2="-15" y2="17" />
                <line x1="0" y1="5" x2="15" y2="17" /></g>
<text text-anchor="middle" x="50.951" y="-287" font-family="Helvetica,sans-Serif" font-size="10.00" fill="#000000">Customer</text>
</g>
<!-- A1 -->
<g id="node2" class="node">
<title>A1</title>
<ellipse fill="none" stroke="#000000" cx="228.669" cy="-288" rx="39.4434" ry="18"/>
<text text-anchor="middle" x="228.669" y="-285" font-family="Helvetica,sans-Serif" font-size="10.00" fill="#000000">Register</text>
</g>
<!-- A0&#45;&gt;A1 -->
<g id="edge1" class="edge">
<title>A0&#45;&gt;A1</title>
<path fill="none" stroke="#000000" d="M101.8779,-301.0922C129.6741,-295.967 163.5666,-290.9694 189.3147,-288.263"/>
</g>
<!-- A0&#45;&gt;A1 -->
<g id="edge31" class="edge">
<title>A0&#45;&gt;A1</title>
<path fill="none" stroke="#000000" d="M101.8779,-313.4335C132.2383,-309.8065 169.8717,-303.8172 196.2214,-298.2851"/>
</g>
<!-- A2 -->
<g id="node3" class="node">
<title>A2</title>
<ellipse fill="none" stroke="#000000" cx="228.669" cy="-612" rx="31.5864" ry="18"/>
<text text-anchor="middle" x="228.669" y="-609" font-family="Helvetica,sans-Serif" font-size="10.00" fill="#000000">Login</text>
</g>
<!-- A0&#45;&gt;A2 -->
<g id="edge2" class="edge">
<title>A0&#45;&gt;A2</title>
<path fill="none" stroke="#000000" d="M55.5689,-351.1077C64.2042,-406.8636 88.1208,-513.4568 151.902,-576 165.7217,-589.5514 186.7355,-596.3312 203.2856,-601.0854"/>
</g>
<!-- A0&#45;&gt;A2 -->
<g id="edge32" class="edge">
<title>A0&#45;&gt;A2</title>
<path fill="none" stroke="#000000" d="M54.027,-351.1638C61.1687,-410.3327 83.833,-527.2522 151.902,-594 164.2086,-606.0677 182.2202,-612.7654 197.7042,-615.4966"/>
</g>
<!-- A3 -->
<g id="node4" class="node">
<title>A3</title>
<ellipse fill="none" stroke="#000000" cx="228.669" cy="-558" rx="35.4469" ry="18"/>
<text text-anchor="middle" x="228.669" y="-555" font-family="Helvetica,sans-Serif" font-size="10.00" fill="#000000">Logout</text>
</g>
<!-- A0&#45;&gt;A3 -->
<g id="edge3" class="edge">
<title>A0&#45;&gt;A3</title>
<path fill="none" stroke="#000000" d="M60.2637,-351.019C72.9883,-396.8843 100.3562,-475.3204 151.902,-522 165.7251,-534.5181 185.7031,-541.3054 201.8136,-546.1774"/>
</g>
<!-- A0&#45;&gt;A3 -->
<g id="edge33" class="edge">
<title>A0&#45;&gt;A3</title>
<path fill="none" stroke="#000000" d="M57.2901,-351.391C68.4442,-401.1082 95.9073,-489.2915 151.902,-540 163.4212,-550.4317 179.2147,-556.8838 193.4825,-560.1361"/>
</g>
<!-- A4 -->
<g id="node5" class="node">
<title>A4</title>
<ellipse fill="none" stroke="#000000" cx="228.669" cy="-234" rx="62.0595" ry="18"/>
<text text-anchor="middle" x="228.669" y="-231" font-family="Helvetica,sans-Serif" font-size="10.00" fill="#000000">Browse Products</text>
</g>
<!-- A0&#45;&gt;A4 -->
<g id="edge4" class="edge">
<title>A0&#45;&gt;A4</title>
<path fill="none" stroke="#000000" d="M98.984,-278.8625C115.4893,-269.4021 134.2564,-259.768 151.902,-252 159.143,-248.8123 166.8895,-245.7273 174.5739,-242.9467"/>
</g>
<!-- A0&#45;&gt;A4 -->
<g id="edge34" class="edge">
<title>A0&#45;&gt;A4</title>
<path fill="none" stroke="#000000" d="M102.072,-294.2969C117.8067,-286.2174 135.3478,-277.2875 151.902,-270 168.065,-262.8847 186.7465,-256.2806 201.6335,-250.3372"/>
</g>
<!-- A5 -->
<g id="node6" class="node">
<title>A5</title>
<ellipse fill="none" stroke="#000000" cx="228.669" cy="-180" rx="61.063" ry="18"/>
<text text-anchor="middle" x="228.669" y="-177" font-family="Helvetica,sans-Serif" font-size="10.00" fill="#000000">Search Products</text>
</g>
<!-- A0&#45;&gt;A5 -->
<g id="edge5" class="edge">
<title>A0&#45;&gt;A5</title>
<path fill="none" stroke="#000000" d="M71.5933,-278.942C90.1639,-252.9617 119.4562,-219.1954 151.902,-198 158.1708,-193.9049 165.1342,-190.3482 172.2361,-187.3622"/>
</g>
<!-- A0&#45;&gt;A5 -->
<g id="edge35" class="edge">
<title>A0&#45;&gt;A5</title>
<path fill="none" stroke="#000000" d="M83.8722,-278.794C101.9277,-258.0408 125.9024,-232.9844 151.902,-216 165.6223,-207.0371 182.6705,-200.6532 197.2137,-195.5139"/>
</g>
<!-- A6 -->
<g id="node7" class="node">
<title>A6</title>
<ellipse fill="none" stroke="#000000" cx="228.669" cy="-126" rx="47.4943" ry="18"/>
<text text-anchor="middle" x="228.669" y="-123" font-family="Helvetica,sans-Serif" font-size="10.00" fill="#000000">Add to Cart</text>
</g>
<!-- A0&#45;&gt;A6 -->
<g id="edge6" class="edge">
<title>A0&#45;&gt;A6</title>
<path fill="none" stroke="#000000" d="M62.3266,-278.6877C77.5012,-239.8222 107.6919,-179.4495 151.902,-144 160.4993,-137.1064 170.9842,-131.907 181.4084,-128.264"/>
</g>
<!-- A0&#45;&gt;A6 -->
<g id="edge36" class="edge">
<title>A0&#45;&gt;A6</title>
<path fill="none" stroke="#000000" d="M68.1022,-278.8907C84.5691,-244.3771 112.7334,-193.407 151.902,-162 165.1286,-151.3944 182.823,-144.7989 197.8904,-139.8575"/>
</g>
<!-- A7 -->
<g id="node8" class="node">
<title>A7</title>
<ellipse fill="none" stroke="#000000" cx="228.669" cy="-72" rx="65.8915" ry="18"/>
<text text-anchor="middle" x="228.669" y="-69" font-family="Helvetica,sans-Serif" font-size="10.00" fill="#000000">Remove from Cart</text>
</g>
<!-- A0&#45;&gt;A7 -->
<g id="edge7" class="edge">
<title>A0&#45;&gt;A7</title>
<path fill="none" stroke="#000000" d="M57.2901,-278.609C68.4442,-228.8918 95.9073,-140.7085 151.902,-90 156.6144,-85.7325 162.0421,-82.131 167.7881,-79.1421"/>
</g>
<!-- A0&#45;&gt;A7 -->
<g id="edge37" class="edge">
<title>A0&#45;&gt;A7</title>
<path fill="none" stroke="#000000" d="M60.2637,-278.981C72.9883,-233.1157 100.3562,-154.6796 151.902,-108 163.0023,-97.9476 178.0717,-91.5907 191.9202,-86.9536"/>
</g>
<!-- A8 -->
<g id="node9" class="node">
<title>A8</title>
<ellipse fill="none" stroke="#000000" cx="228.669" cy="-18" rx="42.7883" ry="18"/>
<text text-anchor="middle" x="228.669" y="-15" font-family="Helvetica,sans-Serif" font-size="10.00" fill="#000000">View Cart</text>
</g>
<!-- A0&#45;&gt;A8 -->
<g id="edge8" class="edge">
<title>A0&#45;&gt;A8</title>
<path fill="none" stroke="#000000" d="M54.027,-278.8362C61.1687,-219.6673 83.833,-102.7478 151.902,-36 161.0815,-26.9987 173.4351,-20.9851 185.5463,-17.3767"/>
</g>
<!-- A0&#45;&gt;A8 -->
<g id="edge38" class="edge">
<title>A0&#45;&gt;A8</title>
<path fill="none" stroke="#000000" d="M55.5689,-278.8923C64.2042,-223.1364 88.1208,-116.5432 151.902,-54 164.2086,-41.9323 182.2202,-35.2346 197.7042,-30.5552"/>
</g>
<!-- A9 -->
<g id="node10" class="node">
<title>A9</title>
<ellipse fill="none" stroke="#000000" cx="228.669" cy="-450" rx="48.8258" ry="18"/>
<text text-anchor="middle" x="228.669" y="-447" font-family="Helvetica,sans-Serif" font-size="10.00" fill="#000000">Place Order</text>
</g>
<!-- A0&#45;&gt;A9 -->
<g id="edge9" class="edge">
<title>A0&#45;&gt;A9</title>
<path fill="none" stroke="#000000" d="M83.8722,-351.206C101.9277,-371.9592 125.9024,-397.0156 151.902,-414 166.4502,-423.5037 184.7402,-430.1079 199.8179,-435.4032"/>
</g>
<!-- A0&#45;&gt;A9 -->
<g id="edge39" class="edge">
<title>A0&#45;&gt;A9</title>
<path fill="none" stroke="#000000" d="M71.5933,-351.058C90.1639,-377.0383 119.4562,-410.8046 151.902,-432 160.6546,-437.7177 170.7615,-442.3859 180.7085,-445.9162"/>
</g>
<!-- A10 -->
<g id="node11" class="node">
<title>A10</title>
<ellipse fill="none" stroke="#000000" cx="228.669" cy="-504" rx="49.8222" ry="18"/>
<text text-anchor="middle" x="228.669" y="-501" font-family="Helvetica,sans-Serif" font-size="10.00" fill="#000000">View Orders</text>
</g>
<!-- A0&#45;&gt;A10 -->
<g id="edge10" class="edge">
<title>A0&#45;&gt;A10</title>
<path fill="none" stroke="#000000" d="M68.1022,-351.1093C84.5691,-385.6229 112.7334,-436.593 151.902,-468 164.9081,-478.4289 182.2344,-484.9801 197.1349,-489.8941"/>
</g>
<!-- A0&#45;&gt;A10 -->
<g id="edge40" class="edge">
<title>A0&#45;&gt;A10</title>
<path fill="none" stroke="#000000" d="M62.3266,-351.3123C77.5012,-390.1778 107.6919,-450.5505 151.902,-486 159.9482,-492.4517 169.6477,-497.4195 179.4035,-501.0162"/>
</g>
<!-- A11 -->
<g id="node12" class="node">
<title>A11</title>
<ellipse fill="none" stroke="#000000" cx="228.669" cy="-396" rx="48.815" ry="18"/>
<text text-anchor="middle" x="228.669" y="-393" font-family="Helvetica,sans-Serif" font-size="10.00" fill="#000000">Track Order</text>
</g>
<!-- A0&#45;&gt;A11 -->
<g id="edge11" class="edge">
<title>A0&#45;&gt;A11</title>
<path fill="none" stroke="#000000" d="M102.072,-335.7031C117.8067,-343.7826 135.3478,-352.7125 151.902,-360 168.7116,-367.3999 188.2451,-374.2469 203.4013,-380.3728"/>
</g>
<!-- A0&#45;&gt;A11 -->
<g id="edge41" class="edge">
<title>A0&#45;&gt;A11</title>
<path fill="none" stroke="#000000" d="M98.984,-351.1375C115.4893,-360.5979 134.2564,-370.232 151.902,-378 161.5998,-382.2692 172.2043,-386.3543 182.3518,-389.7705"/>
</g>
<!-- A12 -->
<g id="node13" class="node">
<title>A12</title>
<ellipse fill="none" stroke="#000000" cx="228.669" cy="-342" rx="52.6729" ry="18"/>
<text text-anchor="middle" x="228.669" y="-339" font-family="Helvetica,sans-Serif" font-size="10.00" fill="#000000">Cancel Order</text>
</g>
<!-- A0&#45;&gt;A12 -->
<g id="edge12" class="edge">
<title>A0&#45;&gt;A12</title>
<path fill="none" stroke="#000000" d="M101.8779,-316.5665C129.4689,-319.8627 163.0667,-325.1098 188.7433,-330.1918"/>
</g>
<!-- A0&#45;&gt;A12 -->
<g id="edge42" class="edge">
<title>A0&#45;&gt;A12</title>
<path fill="none" stroke="#000000" d="M101.8779,-328.9078C125.161,-333.2008 152.7216,-337.4044 176.19,-340.2468"/>
</g>
<!-- A28 -->
<g id="node29" class="node">
<title>A28</title>
<ellipse fill="none" stroke="#000000" cx="425.4042" cy="-264" rx="66.6157" ry="22.7556"/>
<text text-anchor="middle" x="425.4042" y="-267" font-family="Helvetica,sans-Serif" font-size="10.00" fill="#000000">Enter Personal</text>
<text text-anchor="middle" x="425.4042" y="-255" font-family="Helvetica,sans-Serif" font-size="10.00" fill="#000000">Details</text>
</g>
<!-- A1&#45;&gt;A28 -->
<g id="edge43" class="edge">
<title>A1&#45;&gt;A28</title>
<path fill="none" stroke="#000000" d="M266.6016,-283.3726C293.7345,-280.0626 330.8832,-275.5307 362.4288,-271.6825"/>
</g>
<!-- A29 -->
<g id="node30" class="node">
<title>A29</title>
<ellipse fill="none" stroke="#000000" cx="425.4042" cy="-327" rx="63.046" ry="22.7556"/>
<text text-anchor="middle" x="425.4042" y="-330" font-family="Helvetica,sans-Serif" font-size="10.00" fill="#000000">Provide Login</text>
<text text-anchor="middle" x="425.4042" y="-318" font-family="Helvetica,sans-Serif" font-size="10.00" fill="#000000">Credentials</text>
</g>
<!-- A1&#45;&gt;A29 -->
<g id="edge44" class="edge">
<title>A1&#45;&gt;A29</title>
<path fill="none" stroke="#000000" d="M264.7533,-295.1532C294.2605,-301.0026 336.4696,-309.37 370.2181,-316.0601"/>
</g>
<!-- A30 -->
<g id="node31" class="node">
<title>A30</title>
<ellipse fill="none" stroke="#000000" cx="425.4042" cy="-612" rx="63.0631" ry="18"/>
<text text-anchor="middle" x="425.4042" y="-609" font-family="Helvetica,sans-Serif" font-size="10.00" fill="#000000">Enter Credentials</text>
</g>
<!-- A2&#45;&gt;A30 -->
<g id="edge45" class="edge">
<title>A2&#45;&gt;A30</title>
<path fill="none" stroke="#000000" d="M260.2779,-612C287.6497,-612 328.079,-612 362.0815,-612"/>
</g>
<!-- A31 -->
<g id="node32" class="node">
<title>A31</title>
<ellipse fill="none" stroke="#000000" cx="425.4042" cy="-180" rx="69.9361" ry="18"/>
<text text-anchor="middle" x="425.4042" y="-177" font-family="Helvetica,sans-Serif" font-size="10.00" fill="#000000">Enter Search Query</text>
</g>
<!-- A5&#45;&gt;A31 -->
<g id="edge46" class="edge">
<title>A5&#45;&gt;A31</title>
<path fill="none" stroke="#000000" d="M290.108,-180C310.74,-180 333.9074,-180 355.1622,-180"/>
</g>
<!-- A13 -->
<g id="node14" class="node">
<title>A13</title>
<g transform="translate(50.951,-798)" style="fill:none;stroke:black;stroke-width:1px"><circle cx="0" cy="-20" r="7.5" />
                <line x1="0" y1="-12.5" x2="0" y2="5" />
                <line x1="-15" y1="-5" x2="15" y2="-5" />
                <line x1="0" y1="5" x2="-15" y2="17" />
                <line x1="0" y1="5" x2="15" y2="17" /></g>
<text text-anchor="middle" x="50.951" y="-773" font-family="Helvetica,sans-Serif" font-size="10.00" fill="#000000">Admin</text>
</g>
<!-- A13&#45;&gt;A2 -->
<g id="edge13" class="edge">
<title>A13&#45;&gt;A2</title>
<path fill="none" stroke="#000000" d="M64.9946,-764.7593C80.899,-728.1911 110.148,-672.4801 151.902,-639 165.349,-628.2176 183.414,-621.5802 198.6416,-617.5858"/>
</g>
<!-- A13&#45;&gt;A3 -->
<g id="edge14" class="edge">
<title>A13&#45;&gt;A3</title>
<path fill="none" stroke="#000000" d="M58.6463,-764.8229C70.5929,-717.1822 98.0551,-633.7635 151.902,-585 163.8401,-574.1889 180.369,-567.6523 195.0326,-563.727"/>
</g>
<!-- A13&#45;&gt;A10 -->
<g id="edge20" class="edge">
<title>A13&#45;&gt;A10</title>
<path fill="none" stroke="#000000" d="M54.7489,-764.7079C62.6414,-707.3521 85.9769,-595.6455 151.902,-531 160.7789,-522.2954 172.624,-516.3848 184.3478,-512.3759"/>
</g>
<!-- A14 -->
<g id="node15" class="node">
<title>A14</title>
<ellipse fill="none" stroke="#000000" cx="228.669" cy="-936" rx="63.913" ry="18"/>
<text text-anchor="middle" x="228.669" y="-933" font-family="Helvetica,sans-Serif" font-size="10.00" fill="#000000">Manage Products</text>
</g>
<!-- A13&#45;&gt;A14 -->
<g id="edge15" class="edge">
<title>A13&#45;&gt;A14</title>
<path fill="none" stroke="#000000" d="M77.233,-837.1041C95.8187,-860.4073 122.5719,-889.8399 151.902,-909 161.0094,-914.9495 171.5832,-919.7626 181.9174,-923.5848"/>
</g>
<!-- A15 -->
<g id="node16" class="node">
<title>A15</title>
<ellipse fill="none" stroke="#000000" cx="228.669" cy="-882" rx="49.8462" ry="18"/>
<text text-anchor="middle" x="228.669" y="-879" font-family="Helvetica,sans-Serif" font-size="10.00" fill="#000000">Add Product</text>
</g>
<!-- A13&#45;&gt;A15 -->
<g id="edge16" class="edge">
<title>A13&#45;&gt;A15</title>
<path fill="none" stroke="#000000" d="M94.4508,-826.1492C111.9971,-835.7941 132.6191,-846.5112 151.902,-855 164.4445,-860.5215 178.5036,-865.7351 191.1292,-870.0815"/>
</g>
<!-- A16 -->
<g id="node17" class="node">
<title>A16</title>
<ellipse fill="none" stroke="#000000" cx="228.669" cy="-828" rx="49.6716" ry="18"/>
<text text-anchor="middle" x="228.669" y="-825" font-family="Helvetica,sans-Serif" font-size="10.00" fill="#000000">Edit Product</text>
</g>
<!-- A13&#45;&gt;A16 -->
<g id="edge17" class="edge">
<title>A13&#45;&gt;A16</title>
<path fill="none" stroke="#000000" d="M94.4257,-807.6049C121.2461,-811.6797 155.6069,-816.9 182.8508,-821.039"/>
</g>
<!-- A17 -->
<g id="node18" class="node">
<title>A17</title>
<ellipse fill="none" stroke="#000000" cx="228.669" cy="-774" rx="56.7044" ry="18"/>
<text text-anchor="middle" x="228.669" y="-771" font-family="Helvetica,sans-Serif" font-size="10.00" fill="#000000">Delete Product</text>
</g>
<!-- A13&#45;&gt;A17 -->
<g id="edge18" class="edge">
<title>A13&#45;&gt;A17</title>
<path fill="none" stroke="#000000" d="M94.4257,-794.3951C119.4992,-790.5857 151.1628,-785.7752 177.4408,-781.7829"/>
</g>
<!-- A18 -->
<g id="node19" class="node">
<title>A18</title>
<ellipse fill="none" stroke="#000000" cx="228.669" cy="-720" rx="58.7105" ry="18"/>
<text text-anchor="middle" x="228.669" y="-717" font-family="Helvetica,sans-Serif" font-size="10.00" fill="#000000">Manage Orders</text>
</g>
<!-- A13&#45;&gt;A18 -->
<g id="edge19" class="edge">
<title>A13&#45;&gt;A18</title>
<path fill="none" stroke="#000000" d="M94.4508,-775.8508C111.9971,-766.2059 132.6191,-755.4888 151.902,-747 163.4101,-741.9339 176.1949,-737.1269 187.9778,-733.0113"/>
</g>
<!-- A19 -->
<g id="node20" class="node">
<title>A19</title>
<ellipse fill="none" stroke="#000000" cx="228.669" cy="-666" rx="71.9507" ry="18"/>
<text text-anchor="middle" x="228.669" y="-663" font-family="Helvetica,sans-Serif" font-size="10.00" fill="#000000">Update Order Status</text>
</g>
<!-- A13&#45;&gt;A19 -->
<g id="edge21" class="edge">
<title>A13&#45;&gt;A19</title>
<path fill="none" stroke="#000000" d="M77.233,-764.8959C95.8187,-741.5927 122.5719,-712.1601 151.902,-693 160.2998,-687.5141 169.9443,-682.9944 179.498,-679.3268"/>
</g>
<!-- A20 -->
<g id="node21" class="node">
<title>A20</title>
<ellipse fill="none" stroke="#000000" cx="228.669" cy="-1098" rx="69.0921" ry="18"/>
<text text-anchor="middle" x="228.669" y="-1095" font-family="Helvetica,sans-Serif" font-size="10.00" fill="#000000">Manage Customers</text>
</g>
<!-- A13&#45;&gt;A20 -->
<g id="edge22" class="edge">
<title>A13&#45;&gt;A20</title>
<path fill="none" stroke="#000000" d="M54.7489,-837.2921C62.6414,-894.6479 85.9769,-1006.3545 151.902,-1071 158.5597,-1077.5284 166.887,-1082.4853 175.5805,-1086.2469"/>
</g>
<!-- A21 -->
<g id="node22" class="node">
<title>A21</title>
<ellipse fill="none" stroke="#000000" cx="228.669" cy="-1044" rx="60.7034" ry="18"/>
<text text-anchor="middle" x="228.669" y="-1041" font-family="Helvetica,sans-Serif" font-size="10.00" fill="#000000">View Customers</text>
</g>
<!-- A13&#45;&gt;A21 -->
<g id="edge23" class="edge">
<title>A13&#45;&gt;A21</title>
<path fill="none" stroke="#000000" d="M58.6463,-837.1771C70.5929,-884.8178 98.0551,-968.2365 151.902,-1017 159.756,-1024.1126 169.597,-1029.375 179.5867,-1033.261"/>
</g>
<!-- A22 -->
<g id="node23" class="node">
<title>A22</title>
<ellipse fill="none" stroke="#000000" cx="228.669" cy="-990" rx="61.8829" ry="18"/>
<text text-anchor="middle" x="228.669" y="-987" font-family="Helvetica,sans-Serif" font-size="10.00" fill="#000000">Delete Customer</text>
</g>
<!-- A13&#45;&gt;A22 -->
<g id="edge24" class="edge">
<title>A13&#45;&gt;A22</title>
<path fill="none" stroke="#000000" d="M64.9946,-837.2407C80.899,-873.8089 110.148,-929.5199 151.902,-963 160.1686,-969.6285 170.1805,-974.6906 180.2054,-978.5351"/>
</g>
<!-- A23 -->
<g id="node24" class="node">
<title>A23</title>
<g transform="translate(50.951,-1185)" style="fill:none;stroke:black;stroke-width:1px"><circle cx="0" cy="-20" r="7.5" />
                <line x1="0" y1="-12.5" x2="0" y2="5" />
                <line x1="-15" y1="-5" x2="15" y2="-5" />
                <line x1="0" y1="5" x2="-15" y2="17" />
                <line x1="0" y1="5" x2="15" y2="17" /></g>
<text text-anchor="middle" x="50.951" y="-1160" font-family="Helvetica,sans-Serif" font-size="10.00" fill="#000000">Courier</text>
</g>
<!-- A23&#45;&gt;A2 -->
<g id="edge25" class="edge">
<title>A23&#45;&gt;A2</title>
<path fill="none" stroke="#000000" d="M56.5876,-1151.7885C75.2772,-1032.572 134.9801,-658.7984 151.902,-639 163.2843,-625.6829 181.651,-618.932 197.5655,-615.5108"/>
</g>
<!-- A23&#45;&gt;A3 -->
<g id="edge26" class="edge">
<title>A23&#45;&gt;A3</title>
<path fill="none" stroke="#000000" d="M56.4838,-1151.9367C76.2386,-1023.5887 142.615,-596.043 151.902,-585 162.4501,-572.4574 179.201,-565.7378 194.3676,-562.1395"/>
</g>
<!-- A24 -->
<g id="node25" class="node">
<title>A24</title>
<ellipse fill="none" stroke="#000000" cx="228.669" cy="-1157" rx="66.327" ry="22.7556"/>
<text text-anchor="middle" x="228.669" y="-1160" font-family="Helvetica,sans-Serif" font-size="10.00" fill="#000000">View Assigned</text>
<text text-anchor="middle" x="228.669" y="-1148" font-family="Helvetica,sans-Serif" font-size="10.00" fill="#000000">Deliveries</text>
</g>
<!-- A23&#45;&gt;A24 -->
<g id="edge27" class="edge">
<title>A23&#45;&gt;A24</title>
<path fill="none" stroke="#000000" d="M96.7178,-1180.0167C118.9323,-1176.1418 145.8878,-1171.4398 169.6304,-1167.2983"/>
</g>
<!-- A25 -->
<g id="node26" class="node">
<title>A25</title>
<ellipse fill="none" stroke="#000000" cx="228.669" cy="-1346" rx="70.1727" ry="22.7556"/>
<text text-anchor="middle" x="228.669" y="-1349" font-family="Helvetica,sans-Serif" font-size="10.00" fill="#000000">Update Delivery</text>
<text text-anchor="middle" x="228.669" y="-1337" font-family="Helvetica,sans-Serif" font-size="10.00" fill="#000000">Status</text>
</g>
<!-- A23&#45;&gt;A25 -->
<g id="edge28" class="edge">
<title>A23&#45;&gt;A25</title>
<path fill="none" stroke="#000000" d="M72.4141,-1224.277C90.5599,-1252.2865 118.8419,-1290.3089 151.902,-1315 159.848,-1320.9345 169.0875,-1325.922 178.346,-1330.0419"/>
</g>
<!-- A26 -->
<g id="node27" class="node">
<title>A26</title>
<ellipse fill="none" stroke="#000000" cx="228.669" cy="-1283" rx="62.7274" ry="22.7556"/>
<text text-anchor="middle" x="228.669" y="-1286" font-family="Helvetica,sans-Serif" font-size="10.00" fill="#000000">View Delivery</text>
<text text-anchor="middle" x="228.669" y="-1274" font-family="Helvetica,sans-Serif" font-size="10.00" fill="#000000">Details</text>
</g>
<!-- A23&#45;&gt;A26 -->
<g id="edge29" class="edge">
<title>A23&#45;&gt;A26</title>
<path fill="none" stroke="#000000" d="M96.6557,-1219.4452C113.6113,-1230.4441 133.2576,-1242.4256 151.902,-1252 162.2586,-1257.3184 173.7468,-1262.3747 184.6136,-1266.8024"/>
</g>
<!-- A27 -->
<g id="node28" class="node">
<title>A27</title>
<ellipse fill="none" stroke="#000000" cx="228.669" cy="-1220" rx="76.5348" ry="22.7556"/>
<text text-anchor="middle" x="228.669" y="-1223" font-family="Helvetica,sans-Serif" font-size="10.00" fill="#000000">Generate Delivery</text>
<text text-anchor="middle" x="228.669" y="-1211" font-family="Helvetica,sans-Serif" font-size="10.00" fill="#000000">Report</text>
</g>
<!-- A23&#45;&gt;A27 -->
<g id="edge30" class="edge">
<title>A23&#45;&gt;A27</title>
<path fill="none" stroke="#000000" d="M96.7178,-1196.2408C116.8754,-1199.8704 140.9367,-1204.2029 162.9589,-1208.1682"/>
</g>
</g>
</svg>
